<svg width="200" height="250" viewBox="0 0 200 250" fill="none" xmlns="http://www.w3.org/2000/svg">
<g filter="url(#filter0_d_313:66)">
<path d="M148.54 69H50.799C39.8643 69 31 77.918 31 88.8527C31 94.1037 33.086 99.086 36.799 102.799L44.9704 110.97C50.7519 116.752 58.5934 120 66.7698 120H86.9182C89.5953 120 91.9224 118.099 92.5031 115.486C93.8348 109.494 102.476 109.377 103.625 115.407C104.133 118.072 106.463 120 109.176 120H130.667C138.598 120 146.24 117.02 152.076 111.65L161.715 102.782C165.721 99.0969 168 93.903 168 88.4604C168 77.7127 159.287 69 148.54 69Z" fill="#4F4F4F"/>
</g>
<defs>
<filter id="filter0_d_313:66" x="30" y="69" width="139" height="56" filterUnits="userSpaceOnUse" color-interpolation-filters="sRGB">
<feFlood flood-opacity="0" result="BackgroundImageFix"/>
<feColorMatrix in="SourceAlpha" type="matrix" values="0 0 0 0 0 0 0 0 0 0 0 0 0 0 0 0 0 0 127 0" result="hardAlpha"/>
<feOffset dy="4"/>
<feGaussianBlur stdDeviation="0.5"/>
<feComposite in2="hardAlpha" operator="out"/>
<feColorMatrix type="matrix" values="0 0 0 0 0 0 0 0 0 0 0 0 0 0 0 0 0 0 0.03 0"/>
<feBlend mode="normal" in2="BackgroundImageFix" result="effect1_dropShadow_313:66"/>
<feBlend mode="normal" in="SourceGraphic" in2="effect1_dropShadow_313:66" result="shape"/>
</filter>
</defs>
</svg>
