<svg width="46" height="45" viewBox="0 0 46 45" fill="none" xmlns="http://www.w3.org/2000/svg">
<path d="M41.3335 33.75H45.0911V45H0V33.75H3.75759V41.25H41.3335V33.75Z" fill="white"/>
<path d="M30.0615 0C30.0615 1.2 30.0615 2.4 30.0615 3.75H22.5463V7.5H18.7887V3.75H14.7681C14.7681 2.55 14.7681 1.35 14.7681 0H30.0615Z" fill="white"/>
<path d="M11.2727 18.75H7.51514V11.25C8.60484 11.25 9.88242 11.25 11.2727 11.25V3.75H14.8049V7.5H18.7879V11.25H14.7673C14.7673 12.525 14.7673 13.725 14.7673 15C13.5273 15 12.4752 15 11.2352 15V18.75H11.2727Z" fill="white"/>
<path d="M11.2729 26.25C11.2729 23.7 11.2729 21.3375 11.2729 18.75H14.8051C14.8051 20.0625 14.8051 21.15 14.8051 22.5H18.7881V26.25H11.2729Z" fill="white"/>
<path d="M7.51514 30V26.25H11.2727V30H7.51514Z" fill="white"/>
<path d="M3.75781 33.75V30H7.5154V33.75H3.75781Z" fill="white"/>
<path d="M30.0606 3.75H33.8182V11.25H22.5454V7.5H30.0606V3.75Z" fill="white"/>
<path d="M33.8184 18.75C33.8184 21.3375 33.8184 23.7 33.8184 26.25H26.3032C26.3032 25.0875 26.3032 23.925 26.3032 22.5H30.0608C30.0608 21.1875 30.0608 20.1 30.0608 18.9375L33.8184 18.75Z" fill="white"/>
<path d="M33.8184 11.25H37.3881V18.75H33.8184C33.8184 16.1625 33.8184 13.6875 33.8184 11.25Z" fill="white"/>
<path d="M33.8184 26.25H37.3881V30H33.8184V26.25Z" fill="white"/>
<path d="M37.3887 30H41.3341C41.3341 31.275 41.3341 32.4375 41.3341 33.75H37.3887V30Z" fill="white"/>
<path d="M18.7881 26.25H26.3033V30H18.7881V26.25Z" fill="white"/>
</svg>
