<svg width="40" height="47" viewBox="0 0 40 47" fill="none" xmlns="http://www.w3.org/2000/svg">
<path d="M9.00928 22.8789V23.4425L9.85469 24.2628L10.7001 23.4425V22.8789C10.1422 22.9894 9.56713 22.9894 9.00928 22.8789Z" fill="white"/>
<path d="M6.47334 16.3984H7.60873C8.28083 16.3967 8.92514 16.1379 9.40184 15.6782L10.1027 14.9982C10.2612 14.8444 10.4762 14.758 10.7004 14.758C10.9246 14.758 11.1396 14.8444 11.2981 14.9982L12.4935 16.1581C12.5721 16.2344 12.6654 16.2949 12.7681 16.3361C12.8708 16.3773 12.9809 16.3985 13.0921 16.3984H13.2366C13.4608 16.3984 13.6759 16.4849 13.8344 16.6387C13.993 16.7925 14.082 17.0012 14.082 17.2188V16.3984C14.0807 15.311 13.6349 14.2685 12.8425 13.4996C12.05 12.7307 10.9757 12.2982 9.85498 12.2969C8.73452 12.2988 7.66052 12.7316 6.86823 13.5004C6.07594 14.2691 5.62994 15.3112 5.62793 16.3984V17.2188C5.62793 17.0012 5.717 16.7925 5.87554 16.6387C6.03409 16.4849 6.24912 16.3984 6.47334 16.3984Z" fill="white"/>
<path d="M12.3913 18.8594V17.9447C11.9778 17.8298 11.6015 17.614 11.2982 17.318L10.7005 16.738L10.5974 16.8381C10.2058 17.2201 9.74006 17.5229 9.22707 17.7291C8.71409 17.9352 8.16406 18.0406 7.60882 18.0391H7.31885V18.8594C7.31885 19.512 7.58606 20.138 8.06169 20.5995C8.53733 21.061 9.18243 21.3203 9.85508 21.3203C10.5277 21.3203 11.1728 21.061 11.6485 20.5995C12.1241 20.138 12.3913 19.512 12.3913 18.8594Z" fill="white"/>
<path d="M11.8636 24.6327L10.4526 26.0018C10.2941 26.1556 10.0791 26.242 9.85489 26.242C9.63071 26.242 9.41572 26.1556 9.25718 26.0018L7.84619 24.6327C6.78597 24.7085 5.79433 25.1699 5.06956 25.9246C4.34479 26.6792 3.94031 27.6715 3.93701 28.7031V30.3437H15.7728V28.7031C15.7695 27.6715 15.365 26.6792 14.6402 25.9246C13.9154 25.1699 12.9238 24.7085 11.8636 24.6327Z" fill="white"/>
<path d="M32.6813 0.8125H0.555664V5.73438H32.6813V0.8125Z" fill="white"/>
<path d="M27.6977 9.46926C27.7758 9.34213 27.8866 9.23686 28.0192 9.16376C28.1518 9.09065 28.3018 9.05222 28.4543 9.05222C28.6068 9.05222 28.7568 9.09065 28.8894 9.16376C29.022 9.23686 29.1328 9.34213 29.2109 9.46926L29.2955 9.64234V7.375H27.6089V9.64234L27.6977 9.46926Z" fill="white"/>
<path d="M12.3911 22.1193V23.0217C13.4677 23.1735 14.4801 23.6113 15.3162 24.2866C15.7588 24.0483 16.1175 23.6866 16.346 23.2484C16.5745 22.8102 16.6622 22.3155 16.5978 21.8284C16.5334 21.3412 16.3199 20.884 15.9849 20.5159C15.6499 20.1478 15.2087 19.8856 14.7185 19.7634C14.4822 19.7038 14.2377 19.6805 13.994 19.6945C13.78 20.6645 13.2105 21.5261 12.3911 22.1193Z" fill="white"/>
<path d="M36.0629 0.8125H34.3721V5.73438H36.0629V0.8125Z" fill="white"/>
<path d="M36.0627 45.9297V7.375H34.3719V45.9297C34.3691 46.2098 34.3164 46.4873 34.2163 46.75H35.2173C35.4415 46.75 35.6565 46.6636 35.8151 46.5097C35.9736 46.3559 36.0627 46.1472 36.0627 45.9297Z" fill="white"/>
<path d="M39.4447 0.8125H37.7539V5.73438H39.4447V0.8125Z" fill="white"/>
<path d="M39.444 45.9297V7.375H37.7532V45.9297C37.7504 46.2098 37.6978 46.4873 37.5977 46.75H38.5986C38.8228 46.75 39.0379 46.6636 39.1964 46.5097C39.355 46.3559 39.444 46.1472 39.444 45.9297Z" fill="white"/>
<path d="M4.39408 24.2842C5.23024 23.6088 6.24259 23.1711 7.3192 23.0192V22.1169C6.49688 21.5222 5.92588 20.6573 5.71292 19.6839C5.47641 19.6709 5.2393 19.6945 5.01038 19.7536C4.51743 19.8723 4.07273 20.1323 3.73418 20.4997C3.39563 20.8671 3.17891 21.3249 3.11223 21.8134C3.04555 22.302 3.132 22.7987 3.36032 23.239C3.58865 23.6792 3.94827 24.0426 4.39239 24.2817L4.39408 24.2842Z" fill="white"/>
<path d="M0.555664 45.9297C0.555664 46.1472 0.644734 46.3559 0.803279 46.5097C0.961824 46.6636 1.17686 46.75 1.40107 46.75H31.8359C32.0601 46.75 32.2751 46.6636 32.4337 46.5097C32.5922 46.3559 32.6813 46.1472 32.6813 45.9297V7.375H30.9904V13.1172C30.9926 13.3037 30.9292 13.4853 30.8107 13.6321C30.6923 13.7789 30.5258 13.8822 30.3387 13.9249C30.1516 13.9676 29.9551 13.9472 29.7816 13.867C29.6081 13.7869 29.4679 13.6517 29.3842 13.4839L28.4542 11.6702L27.5243 13.4839C27.4405 13.6517 27.3003 13.7869 27.1268 13.867C26.9533 13.9472 26.7568 13.9676 26.5697 13.9249C26.3827 13.8822 26.2162 13.7789 26.0977 13.6321C25.9792 13.4853 25.9158 13.3037 25.918 13.1172V7.375H0.555664V45.9297ZM15.7731 43.4688H2.24649V41.8281H15.7731V43.4688ZM9.00977 38.5469V40.1875H2.24649V38.5469H9.00977ZM2.24649 36.9062V35.2656H5.62813V36.9062H2.24649ZM10.7006 40.1875V38.5469H12.3914V40.1875H10.7006ZM15.7731 40.1875H14.0822V38.5469H15.7731V40.1875ZM15.7731 36.9062H7.31895V35.2656H15.7731V36.9062ZM30.9904 40.1875H27.6088V38.5469H30.9904V40.1875ZM30.9904 31.9844H25.918V30.3438H30.9904V31.9844ZM22.5363 23.7812H30.9904V25.4219H22.5363V23.7812ZM19.1547 23.7812H20.8455V25.4219H19.1547V23.7812ZM19.1547 27.0625H30.9904V28.7031H19.1547V27.0625ZM19.1547 30.3438H24.2272V31.9844H19.1547V30.3438ZM19.1547 35.2656H30.9904V36.9062H19.1547V35.2656ZM19.1547 38.5469H25.918V40.1875H19.1547V38.5469ZM19.1547 41.8281H30.9904V43.4688H19.1547V41.8281ZM3.93731 18.3852V16.3984C3.9391 14.876 4.56316 13.4165 5.67259 12.34C6.78202 11.2635 8.28621 10.658 9.85518 10.6562C11.4241 10.658 12.9283 11.2635 14.0378 12.34C15.1472 13.4165 15.7713 14.876 15.7731 16.3984V18.3836C16.4657 18.675 17.0649 19.1416 17.5082 19.7345C17.9514 20.3275 18.2223 21.0251 18.2927 21.7544C18.363 22.4838 18.2301 23.2181 17.9079 23.8805C17.5858 24.543 17.0861 25.1093 16.4612 25.5203C17.1144 26.4608 17.4636 27.569 17.4639 28.7031V31.1641C17.4639 31.3816 17.3748 31.5903 17.2163 31.7441C17.0577 31.8979 16.8427 31.9844 16.6185 31.9844H3.0919C2.86768 31.9844 2.65265 31.8979 2.4941 31.7441C2.33556 31.5903 2.24649 31.3816 2.24649 31.1641V28.7031C2.24647 27.5684 2.5956 26.4596 3.24914 25.5187C2.624 25.1078 2.12411 24.5415 1.80176 23.879C1.47942 23.2165 1.34646 22.4822 1.4168 21.7527C1.48713 21.0233 1.75818 20.3256 2.20159 19.7326C2.64499 19.1396 3.24447 18.6731 3.93731 18.382V18.3852Z" fill="white"/>
</svg>
