<svg width="40" height="21" viewBox="0 0 40 21" fill="none" xmlns="http://www.w3.org/2000/svg">
<path d="M39.3947 10.5267C39.3802 10.4861 39.3785 10.444 39.3599 10.4067C39.1573 10.0199 34.255 0.9375 19.6105 0.9375C8.19392 0.9375 1.17801 9.69723 0.736321 10.264C0.736321 10.264 0.735511 10.2656 0.734701 10.2656C0.730648 10.2721 0.721734 10.2826 0.718492 10.2859C0.694989 10.3167 0.688506 10.3532 0.669056 10.3856C0.637449 10.4423 0.6026 10.4959 0.584771 10.5575C0.569372 10.6077 0.571804 10.658 0.567752 10.7091C0.562889 10.7618 0.551543 10.8129 0.557216 10.8656C0.563699 10.9272 0.588012 10.9839 0.608273 11.0431C0.62124 11.0804 0.62205 11.1202 0.64069 11.1566C0.842488 11.5434 5.74479 20.625 20.3893 20.625C31.8059 20.625 38.8234 11.8645 39.2635 11.2985C39.2635 11.2985 39.2651 11.2977 39.2651 11.2969C39.2699 11.2912 39.278 11.2807 39.2813 11.2775C39.3048 11.2466 39.3129 11.2093 39.3307 11.1761C39.3623 11.121 39.3972 11.0675 39.415 11.0058C39.4312 10.9564 39.428 10.9061 39.432 10.855C39.4369 10.8023 39.4482 10.7504 39.4434 10.6969C39.4369 10.6369 39.4134 10.5826 39.3947 10.5267ZM20.0011 19.7485C15.0599 19.7485 11.0393 15.7262 11.0393 10.7813C11.0393 5.83627 15.0599 1.81315 20.0011 1.81315C24.9439 1.81315 28.9661 5.83627 28.9661 10.7813C28.9661 15.7262 24.9447 19.7485 20.0011 19.7485Z" fill="white"/>
<path d="M20.0014 6.4071C17.5903 6.4071 15.6299 8.36921 15.6299 10.7813C15.6299 13.1926 17.5903 15.1547 20.0014 15.1547C22.41 15.1547 24.3712 13.1926 24.3712 10.7813C24.372 8.36921 22.4108 6.4071 20.0014 6.4071Z" fill="white"/>
</svg>
