<svg width="40" height="37" viewBox="0 0 40 37" fill="none" xmlns="http://www.w3.org/2000/svg">
<path d="M6.78953 18.4314C6.78953 18.0297 6.8026 17.6325 6.82875 17.2308C6.84182 17.0457 6.85489 16.8561 6.87668 16.6711C6.88539 16.5898 6.89411 16.5041 6.90282 16.4228C6.90718 16.3732 6.9159 16.319 6.92025 16.2693C6.93333 16.1475 6.87668 16.5763 6.91154 16.3235C7.01612 15.5652 7.16863 14.8159 7.37344 14.0801C7.4693 13.7326 7.57824 13.385 7.69589 13.042C7.75254 12.8704 7.81355 12.7034 7.87891 12.5364C7.91377 12.4416 7.95299 12.3513 7.98785 12.2566C8.01399 12.1888 8.075 12.0715 7.94427 12.3604C7.97042 12.3062 7.9922 12.252 8.01399 12.1934C8.30159 11.5208 8.6284 10.8663 8.99444 10.2389C9.18181 9.9184 9.38226 9.60244 9.58706 9.2955C9.68728 9.15105 9.78751 9.00661 9.88773 8.86217C9.94002 8.78995 10.11 8.5778 9.89209 8.85766C9.95309 8.78092 10.0097 8.70419 10.0707 8.62745C10.5196 8.0542 10.9989 7.50803 11.5174 6.99797C11.7702 6.74519 12.0316 6.50145 12.3018 6.26673C12.4325 6.15388 12.5676 6.04104 12.6983 5.93271C12.7288 5.91014 12.7593 5.88306 12.7898 5.86049C12.5458 6.06812 12.6678 5.95979 12.7288 5.91014C12.8116 5.84695 12.8944 5.77924 12.9816 5.71604C13.5524 5.28723 14.1494 4.89453 14.7725 4.54245C15.0863 4.36642 15.4 4.1994 15.7225 4.04594C15.8009 4.00982 15.8793 3.9692 15.9578 3.93309C16.0057 3.91052 16.2846 3.78865 16.0928 3.8699C15.9011 3.95115 16.1844 3.83379 16.2323 3.81122C16.3238 3.77511 16.4109 3.739 16.5025 3.70289C17.1866 3.43206 17.8881 3.21088 18.5984 3.03936C18.9557 2.95359 19.3131 2.88137 19.6747 2.81818C19.7619 2.80464 19.8534 2.7911 19.9405 2.77755C19.9885 2.76853 20.0408 2.76401 20.0887 2.75499C20.08 2.75499 19.7967 2.79561 19.9754 2.77304C20.1628 2.75047 20.3545 2.7279 20.5419 2.70985C21.3175 2.63763 22.0975 2.61957 22.8775 2.66471C23.274 2.68728 23.6662 2.71888 24.0584 2.77304C24.1368 2.78207 24.3024 2.81818 23.9887 2.76401C24.0323 2.77304 24.0715 2.77755 24.115 2.78207C24.1978 2.79561 24.2806 2.80915 24.3634 2.82269C24.5726 2.8588 24.7774 2.89491 24.9822 2.94005C25.736 3.09804 26.4768 3.31018 27.2002 3.5765C27.3745 3.63969 27.5488 3.7074 27.7187 3.77962C27.8059 3.81573 27.8887 3.85184 27.9758 3.88795C28.1153 3.94663 27.7144 3.77059 27.9148 3.86087C27.9715 3.88795 28.0281 3.91052 28.0848 3.9376C28.429 4.09559 28.7689 4.26711 29.1044 4.44766C29.7755 4.8178 30.4247 5.23307 31.0392 5.69348C31.1045 5.74313 31.1699 5.79278 31.2352 5.84243C31.2745 5.87403 31.5228 6.06812 31.366 5.94625C31.2091 5.82438 31.4531 6.01847 31.4923 6.05458C31.5708 6.12229 31.6492 6.18548 31.7276 6.25319C32.024 6.50596 32.3072 6.77228 32.5817 7.04762C33.1177 7.58476 33.6232 8.15802 34.0851 8.76287C34.1112 8.79446 34.133 8.83057 34.1591 8.86217C33.9631 8.61842 34.072 8.74481 34.1199 8.80801C34.1766 8.88474 34.2289 8.95696 34.2812 9.0337C34.3988 9.20071 34.5165 9.37223 34.6298 9.54827C34.8346 9.85972 35.0263 10.1802 35.2137 10.5097C35.4098 10.8573 35.5928 11.2094 35.7627 11.5705C35.8455 11.742 35.9239 11.9135 35.998 12.085C36.0329 12.1618 36.0634 12.2385 36.0982 12.3197C36.1854 12.5274 36.0154 12.1121 36.0721 12.2566C36.0939 12.3152 36.12 12.3739 36.1418 12.4326C36.4991 13.3534 36.778 14.3103 36.9741 15.2853C37.022 15.5246 37.0656 15.7683 37.1048 16.0075C37.1223 16.1159 37.1353 16.2242 37.1528 16.3325C37.1833 16.5402 37.1528 16.3054 37.1441 16.2784C37.1615 16.3551 37.1658 16.4454 37.1746 16.5266C37.2312 17.0502 37.2661 17.5829 37.2748 18.111C37.2878 18.9144 37.253 19.7224 37.1571 20.5213C37.1528 20.5575 37.1266 20.7696 37.1528 20.5575C37.1789 20.3679 37.1571 20.5123 37.1528 20.562C37.1397 20.6522 37.1266 20.747 37.1135 20.8373C37.083 21.0404 37.0482 21.2436 37.009 21.4422C36.9392 21.8033 36.8608 22.1599 36.7693 22.5119C36.5819 23.2432 36.3379 23.9518 36.0677 24.656C36.0154 24.7959 36.1854 24.3806 36.0982 24.5793C36.0808 24.6154 36.0677 24.6515 36.0503 24.6876C36.0154 24.7688 35.9806 24.8501 35.9457 24.9313C35.8717 25.1029 35.7889 25.2744 35.7104 25.4414C35.5492 25.7799 35.3749 26.1094 35.1875 26.4344C35.0089 26.7504 34.8215 27.0573 34.621 27.3643C34.5295 27.5042 34.438 27.6396 34.3422 27.775C34.2855 27.8563 34.2289 27.933 34.1722 28.0143C34.1504 28.0459 34.1243 28.0775 34.1025 28.1091C33.9718 28.2896 34.2681 27.8924 34.133 28.0684C33.6972 28.6417 33.231 29.1879 32.7299 29.6979C32.4728 29.9597 32.207 30.2125 31.9324 30.4608C31.8017 30.5781 31.671 30.691 31.5403 30.8038C31.4793 30.8535 31.4226 30.9031 31.3616 30.9528C31.3355 30.9753 31.183 31.0972 31.3355 30.9753C31.4923 30.8489 31.318 30.9889 31.2875 31.0114C30.7167 31.4583 30.1154 31.8645 29.4922 32.2257C29.1916 32.4017 28.8865 32.5687 28.5728 32.7222C28.4159 32.7989 28.2591 32.8756 28.1022 32.9479C28.0281 32.9795 27.6926 33.1194 28.0455 32.9749C27.954 33.0111 27.8669 33.0517 27.7754 33.0878C27.1043 33.3631 26.4202 33.5933 25.723 33.7739C25.3613 33.8687 24.9953 33.9499 24.6249 34.0176C24.4593 34.0492 24.2937 34.0763 24.1238 34.1034C24.0758 34.1124 24.0235 34.1169 23.9756 34.126C23.9843 34.126 24.2676 34.0853 24.0889 34.1079C23.9887 34.1215 23.8885 34.135 23.7926 34.144C23.017 34.2298 22.2413 34.2569 21.4613 34.2298C21.0517 34.2162 20.6421 34.1846 20.2369 34.1395C20.1366 34.1305 20.0408 34.1169 19.9405 34.1034C19.7837 34.0853 20.2325 34.1485 20.0015 34.1124C19.958 34.1079 19.9144 34.0989 19.8708 34.0944C19.6573 34.0628 19.4394 34.0222 19.2259 33.9815C18.4459 33.8281 17.6746 33.6114 16.9251 33.3406C16.7465 33.2774 16.5635 33.2052 16.3892 33.1329C16.3107 33.1013 16.2323 33.0697 16.1539 33.0336C16.1277 33.0201 15.9273 32.9343 16.1059 33.0156C16.2846 33.0923 16.0667 32.9975 16.0318 32.9795C15.6745 32.817 15.3216 32.6409 14.9773 32.4559C14.2932 32.0812 13.6308 31.6569 13.0034 31.1875C12.9206 31.1243 12.8334 31.0611 12.7506 30.9934C12.7158 30.9663 12.6853 30.9392 12.6504 30.9166C12.8857 31.0972 12.7724 31.016 12.7245 30.9753C12.5632 30.8399 12.3977 30.7045 12.2408 30.5646C11.9445 30.3073 11.6612 30.0365 11.3867 29.7566C11.1122 29.4767 10.8464 29.1879 10.5893 28.8899C10.4629 28.7455 10.3409 28.5965 10.2233 28.4476C10.1623 28.3709 10.1056 28.2986 10.0446 28.2219C10.0141 28.1813 9.97924 28.1361 9.94873 28.0955C9.82237 27.933 10.0969 28.2986 9.96616 28.1181C9.51298 27.4907 9.09902 26.8452 8.72427 26.1636C8.44539 25.649 7.72204 25.4324 7.234 25.7574C6.73288 26.0914 6.54115 26.7504 6.84182 27.3011C8.48896 30.3208 10.9902 32.8531 13.9664 34.451C16.9949 36.0804 20.4852 36.7891 23.8797 36.3919C26.9997 36.0263 29.9977 34.8482 32.4989 32.8666C35.0219 30.8715 36.9567 28.267 38.1724 25.2247C39.5058 21.889 39.776 18.129 39.0526 14.6083C38.338 11.1236 36.5601 7.87365 34.0764 5.41362C31.7146 3.07547 28.7079 1.4189 25.4964 0.759882C22.2849 0.105379 18.8947 0.349125 15.8358 1.57688C12.9685 2.7279 10.3932 4.61919 8.47153 7.11533C6.51936 9.65209 5.20775 12.6673 4.78507 15.8902C4.67177 16.7388 4.60205 17.5874 4.60205 18.445C4.60205 19.0363 5.10317 19.6005 5.69143 19.5734C6.28841 19.5328 6.78517 19.0634 6.78953 18.4314Z" fill="white"/>
<path d="M8.97287 13.9447C7.79198 15.1679 6.61109 16.3912 5.43021 17.6144C5.26026 17.7905 5.09032 17.9665 4.92037 18.1425C5.43456 18.1425 5.94875 18.1425 6.46294 18.1425C5.28205 16.9193 4.10116 15.6961 2.92027 14.4728C2.75033 14.2968 2.58038 14.1207 2.41044 13.9447C2.00519 13.5249 1.26877 13.4978 0.867876 13.9447C0.466984 14.3961 0.436482 15.0957 0.867876 15.5426C2.04877 16.7658 3.22965 17.9891 4.41054 19.2123C4.58049 19.3884 4.75043 19.5644 4.92037 19.7404C5.33434 20.1692 6.04462 20.1738 6.46294 19.7404C7.64383 18.5172 8.82472 17.2939 10.0056 16.0707C10.1756 15.8947 10.3455 15.7186 10.5154 15.5426C10.9207 15.1228 10.9468 14.36 10.5154 13.9447C10.0753 13.5294 9.39991 13.4978 8.97287 13.9447Z" fill="white"/>
<path d="M29.5625 24.6379C28.7999 23.8525 28.0374 23.0626 27.2748 22.2772C26.0634 21.0269 24.852 19.7766 23.6406 18.5262C23.3617 18.2374 23.0785 17.9485 22.7996 17.6596C22.9042 17.9259 23.0131 18.1922 23.1177 18.4585C23.1177 17.5287 23.1177 16.6034 23.1177 15.6735C23.1177 14.202 23.1177 12.7305 23.1177 11.259C23.1177 10.916 23.1177 10.5729 23.1177 10.2344C23.1177 9.64306 22.6166 9.07883 22.0283 9.10592C21.4401 9.133 20.9389 9.60244 20.9389 10.2344C20.9389 11.3312 20.9389 12.4236 20.9389 13.5204C20.9389 15.028 20.9389 16.5357 20.9389 18.0387C20.9389 18.1697 20.9346 18.3051 20.9389 18.436C20.952 18.779 21.0871 19.0814 21.3181 19.3162C21.6187 19.6231 21.915 19.9345 22.2157 20.2415C23.3443 21.4061 24.4685 22.5661 25.5971 23.7307C26.3902 24.5522 27.1746 25.3827 27.9807 26.1907C27.9938 26.2042 28.0069 26.2178 28.0199 26.2313C28.4252 26.6466 29.1616 26.6827 29.5625 26.2313C29.9634 25.7844 29.9939 25.0803 29.5625 24.6379Z" fill="white"/>
</svg>
