<svg width="147" height="167" viewBox="0 0 147 167" fill="none" xmlns="http://www.w3.org/2000/svg">
<path d="M118.935 14.8979C103.931 3.54217 85.0361 -1.39876 66.3943 1.15896C47.7525 3.71667 30.8863 13.5642 19.4957 28.5412C-9.51041 66.7726 2.85799 159.78 3.39861 163.721C3.50532 164.497 3.91619 165.2 4.54089 165.674C5.16558 166.148 5.95296 166.354 6.72984 166.248C10.6701 165.707 103.572 152.568 132.578 114.337C143.934 99.3334 148.875 80.4383 146.317 61.7965C143.759 43.1547 133.912 26.2885 118.935 14.8979ZM8.89465 159.936C7.018 143.612 -0.532093 64.7239 24.2075 32.1161C34.6366 18.37 50.0991 9.32996 67.1936 6.98455C84.288 4.63914 101.614 9.18052 115.36 19.6096C129.106 30.0388 138.146 45.5013 140.492 62.5957C142.837 79.6902 138.296 97.0161 127.866 110.762C103.127 143.37 25.1206 157.346 8.89465 159.936ZM133.595 106.273C139.251 98.8181 144.819 78.564 145.381 69.2228C145.942 59.8816 133.511 36.3902 128.788 28.3115C124.064 20.2328 106.73 9.2776 98.3149 5.18446C89.8995 1.09131 72.2713 2.40036 63.0001 3.6724C53.7289 4.94444 33.1166 17.1795 26.1146 23.388C19.1126 29.5965 11.9233 47.7775 9.55053 56.8298C7.1778 65.882 2.29839 81.2561 5.35472 90.101C8.41104 98.9459 -0.220674 156.59 7.23453 162.246C17.237 169.816 85.1347 139.388 97.5625 137.683C109.99 135.978 126.001 116.258 133.595 106.273ZM101.061 38.4567C106.972 42.9242 111.573 48.8987 114.383 55.7547C117.192 62.6108 118.107 70.0961 117.03 77.4269C115.954 84.7577 112.927 91.6643 108.265 97.4235C103.603 103.183 97.4791 107.583 90.5333 110.162C86.3996 98.4567 78.8617 88.2535 68.8873 80.8627C59.0832 73.2475 47.2268 68.7362 34.8402 67.908C35.454 60.5241 38.0418 53.441 42.3326 47.4005C46.6234 41.3599 52.4593 36.5842 59.2294 33.5732C65.9994 30.5623 73.4544 29.4269 80.8138 30.2861C88.1732 31.1452 95.1663 33.9673 101.061 38.4567ZM51.0132 104.422C46.2477 100.803 42.3252 96.1924 39.5172 90.9086C36.7091 85.6248 35.0826 79.794 34.7501 73.8197C45.8761 74.6282 56.5122 78.719 65.3125 85.5744C74.2848 92.2031 81.0892 101.344 84.8645 111.841C79.0213 113.13 72.9679 113.134 67.1231 111.853C61.2782 110.572 55.7815 108.036 51.0132 104.422ZM72.4621 76.1509C75.7238 78.6255 79.646 80.0774 83.7328 80.3229C87.8196 80.5684 91.8874 79.5965 95.4218 77.5301C98.9562 75.4637 101.799 72.3956 103.589 68.7139C105.38 65.0321 106.039 60.902 105.482 56.8459C104.926 52.7897 103.179 48.9897 100.463 45.9263C97.7465 42.8629 94.1829 40.6738 90.2226 39.6357C86.2622 38.5977 82.0829 38.7573 78.2133 40.0944C74.3437 41.4316 70.9574 43.8862 68.4828 47.1478C65.1706 51.5238 63.7294 57.0349 64.4754 62.4722C65.2214 67.9094 68.0937 72.8287 72.4621 76.1509ZM93.9111 47.8803C96.2408 49.6479 97.9941 52.0666 98.9492 54.8306C99.9043 57.5947 100.018 60.5798 99.2768 63.4087C98.5354 66.2375 96.9717 68.7829 94.7836 70.7231C92.5954 72.6632 89.8811 73.911 86.9839 74.3085C84.0866 74.706 81.1365 74.2354 78.5067 72.9563C75.8769 71.6772 73.6854 69.647 72.2095 67.1224C70.7335 64.5978 70.0393 61.6922 70.2146 58.7731C70.39 55.854 71.427 53.0524 73.1946 50.7226C75.5677 47.6025 79.0815 45.551 82.9651 45.0182C86.8488 44.4853 90.7853 45.5146 93.9111 47.8803Z" fill="#84C4F2"/>
</svg>
